# Made using Asset Forge (www.assetforge.io) version 1.3 

mtllib mine.mtl 

v 0.5 0 0.5
v 0.5 0 -0.5
v -0.5 0 0.5
v -0.5 0 -0.5
v -0.5 0.2 -0.5
v -0.5 0.2 0.5
v 0.5 0.2 -0.5
v 0.5 0.2 0.5
vn 0 -0.2 0
vn -1 0 0
vn 0 0 -1
vn 0 0 1
vn 1 0 0
vn 0 0.2 0
vt -0.5 -0.5
vt -0.5 0.5
vt 0.5 -0.5
vt 0.5 0.5
vt -0.5 0
vt -0.5 0.2
vt 0.5 0
vt 0.5 0.2

usemtl customMaterial1 (Instance)
usemap customMaterial1 (Instance)
f 3/3/1 2/2/1 1/1/1
f 2/2/1 3/3/1 4/4/1
f 3/7/2 5/6/2 4/5/2
f 5/6/2 3/7/2 6/8/2
f 5/8/3 2/5/3 4/7/3
f 2/5/3 5/8/3 7/6/3
f 8/8/4 3/5/4 1/7/4
f 3/5/4 8/8/4 6/6/4
f 8/6/5 2/7/5 7/8/5
f 2/7/5 8/6/5 1/5/5
f 5/3/6 8/2/6 7/1/6
f 8/2/6 5/3/6 6/4/6
v 0.6 0 0.9
v 0.6 0 0
v 0.2 0 0.9
v 0.2 0 0
v 0.2 0.5 0
v 0.2 0.5 0.9
v 0.6 0.5 0
v 0.6 0.5 0.9
vn 0 -0.5 0
vn -0.4 0 0
vn 0 0 -0.9
vn 0 0 0.9
vn 0.4 0 0
vn 0 0.5 0
vt -0.6 -0.9
vt -0.6 0
vt -0.2 -0.9
vt -0.2 0
vt 0 0
vt 0 0.5
vt 0.9 0
vt 0.9 0.5
vt -0.2 0.5
vt -0.6 0.5
vt 0.6 0
vt 0.2 0
vt 0.6 0.5
vt 0.2 0.5
vt -0.9 0.5
vt -0.9 0
vt -0.6 0.9
vt -0.2 0.9

usemtl customMaterial1 (Instance)
usemap customMaterial1 (Instance)
f 11/11/7 10/10/7 9/9/7
f 10/10/7 11/11/7 12/12/7
f 11/15/8 13/14/8 12/13/8
f 13/14/8 11/15/8 14/16/8
f 13/17/9 10/10/9 12/12/9
f 10/10/9 13/17/9 15/18/9
f 16/21/10 11/20/10 9/19/10
f 11/20/10 16/21/10 14/22/10
f 16/23/11 10/13/11 15/14/11
f 10/13/11 16/23/11 9/24/11
f 13/12/12 16/25/12 15/10/12
f 16/25/12 13/12/12 14/26/12
v 0.09999999 0 -0.3
v 0.09999999 0 -0.7
v -0.4 0 -0.3
v -0.4 0 -0.7
v -0.4 0.3 -0.7
v -0.4 0.3 -0.3
v 0.09999999 0.3 -0.7
v 0.09999999 0.3 -0.3
vn 0 -0.3 0
vn -0.5 0 0
vn 0 0 -0.4
vn 0 0 0.4
vn 0.5 0 0
vn 0 0.3 0
vt -0.09999999 0.3
vt -0.09999999 0.7
vt 0.4 0.3
vt 0.4 0.7
vt -0.7 0
vt -0.7 0.3
vt -0.3 0
vt -0.3 0.3
vt 0.4 0
vt -0.09999999 0
vt 0.4 0.3
vt -0.09999999 0.3
vt 0.09999999 0
vt -0.4 0
vt 0.09999999 0.3
vt -0.4 0.3
vt 0.7 0.3
vt 0.7 0
vt 0.3 0.3
vt 0.3 0
vt -0.09999999 -0.7
vt -0.09999999 -0.3
vt 0.4 -0.7
vt 0.4 -0.3

usemtl customMaterial1 (Instance)
usemap customMaterial1 (Instance)
f 19/29/13 18/28/13 17/27/13
f 18/28/13 19/29/13 20/30/13
f 19/33/14 21/32/14 20/31/14
f 21/32/14 19/33/14 22/34/14
f 21/37/15 18/36/15 20/35/15
f 18/36/15 21/37/15 23/38/15
f 24/41/16 19/40/16 17/39/16
f 19/40/16 24/41/16 22/42/16
f 24/45/17 18/44/17 23/43/17
f 18/44/17 24/45/17 17/46/17
f 21/49/18 24/48/18 23/47/18
f 24/48/18 21/49/18 22/50/18
v -2.980232E-08 0 0.4
v -2.980232E-08 0 0.2
v -0.3 0 0.4
v -0.3 0 0.2
v -0.3 0.3 0.2
v -0.3 0.3 0.4
v -2.980232E-08 0.3 0.2
v -2.980232E-08 0.3 0.4
vn 0 -0.3 0
vn -0.3 0 0
vn 0 0 -0.2
vn 0 0 0.2
vn 0.3 0 0
vn 0 0.3 0
vt 2.980232E-08 -0.4
vt 2.980232E-08 -0.2
vt 0.3 -0.4
vt 0.3 -0.2
vt 0.2 0.3
vt 0.4 0
vt 0.4 0.3
vt 0.3 0
vt 2.980232E-08 0
vt 0.3 0.3
vt 2.980232E-08 0.3
vt -2.980232E-08 0
vt -0.3 0
vt -2.980232E-08 0.3
vt -0.3 0.3
vt -0.2 0.3
vt -0.4 0.3
vt -0.4 0
vt 2.980232E-08 0.2
vt 2.980232E-08 0.4
vt 0.3 0.2
vt 0.3 0.4

usemtl customMaterial1 (Instance)
usemap customMaterial1 (Instance)
f 27/53/19 26/52/19 25/51/19
f 26/52/19 27/53/19 28/54/19
f 27/56/20 29/55/20 28/20/20
f 29/55/20 27/56/20 30/57/20
f 29/60/21 26/59/21 28/58/21
f 26/59/21 29/60/21 31/61/21
f 32/64/22 27/63/22 25/62/22
f 27/63/22 32/64/22 30/65/22
f 32/67/23 26/12/23 31/66/23
f 26/12/23 32/67/23 25/68/23
f 29/71/24 32/70/24 31/69/24
f 32/70/24 29/71/24 30/72/24
v 0 0 0.8
v 0 0 -0.2
v -1 0 0.8
v -1 0 -0.2
v -1 0.1 -0.2
v -1 0.1 0.8
v 0 0.1 -0.2
v 0 0.1 0.8
vn 0 -0.1 0
vn 0 0.1 0
vt 0 -0.8
vt 0 0.2
vt 1 -0.8
vt 1 0.2
vt -0.2 0
vt -0.2 0.1
vt 0.8 0
vt 0.8 0.1
vt 1 0
vt 1 0.1
vt 0 0.1
vt -1 0
vt -1 0.1
vt 0.2 0.1
vt 0.2 0
vt -0.8 0.1
vt -0.8 0
vt 0 -0.2
vt 0 0.8
vt 1 -0.2
vt 1 0.8

usemtl customMaterial1 (Instance)
usemap customMaterial1 (Instance)
f 35/75/25 34/74/25 33/73/25
f 34/74/25 35/75/25 36/76/25
f 35/79/2 37/78/2 36/77/2
f 37/78/2 35/79/2 38/80/2
f 37/82/3 34/13/3 36/81/3
f 34/13/3 37/82/3 39/83/3
f 40/83/4 35/84/4 33/13/4
f 35/84/4 40/83/4 38/85/4
f 40/88/5 34/87/5 39/86/5
f 34/87/5 40/88/5 33/89/5
f 37/92/26 40/91/26 39/90/26
f 40/91/26 37/92/26 38/93/26
v -0.8 0 -5.960464E-08
v -0.8 0 -0.3
v -1.2 0 -5.960464E-08
v -1.2 0 -0.3
v -1.2 0.3 -0.3
v -1.2 0.3 -5.960464E-08
v -0.8 0.3 -0.3
v -0.8 0.3 -5.960464E-08
vn 0 0 -0.3
vn 0 0 0.3
vt 0.8 5.960464E-08
vt 0.8 0.3
vt 1.2 5.960464E-08
vt 1.2 0.3
vt -0.3 0.3
vt -5.960464E-08 0
vt -5.960464E-08 0.3
vt 1.2 0
vt -1.2 0
vt -0.8 0.3
vt -1.2 0.3
vt 0.3 0.3
vt 5.960464E-08 0.3
vt 5.960464E-08 0
vt 0.8 -0.3
vt 0.8 -5.960464E-08
vt 1.2 -0.3
vt 1.2 -5.960464E-08

usemtl customMaterial1 (Instance)
usemap customMaterial1 (Instance)
f 43/96/19 42/95/19 41/94/19
f 42/95/19 43/96/19 44/97/19
f 43/99/8 45/98/8 44/33/8
f 45/98/8 43/99/8 46/100/8
f 45/97/27 42/79/27 44/101/27
f 42/79/27 45/97/27 47/95/27
f 48/103/28 43/102/28 41/89/28
f 43/102/28 48/103/28 46/104/28
f 48/106/11 42/46/11 47/105/11
f 42/46/11 48/106/11 41/107/11
f 45/110/24 48/109/24 47/108/24
f 48/109/24 45/110/24 46/111/24
v 0.4 0 0.8
v 0.4 0 0.5999999
v 0.09999996 0 0.8
v 0.09999996 0 0.5999999
v 0.09999996 0.3 0.5999999
v 0.09999996 0.3 0.8
v 0.4 0.3 0.5999999
v 0.4 0.3 0.8
vt -0.4 -0.8
vt -0.4 -0.5999999
vt -0.09999996 -0.8
vt -0.09999996 -0.5999999
vt 0.5999999 0
vt 0.5999999 0.3
vt -0.09999996 0
vt -0.09999996 0.3
vt 0.09999996 0
vt 0.09999996 0.3
vt -0.5999999 0.3
vt -0.5999999 0
vt -0.4 0.5999999
vt -0.4 0.8
vt -0.09999996 0.5999999
vt -0.09999996 0.8

usemtl customMaterial1 (Instance)
usemap customMaterial1 (Instance)
f 51/114/19 50/113/19 49/112/19
f 50/113/19 51/114/19 52/115/19
f 51/79/20 53/117/20 52/116/20
f 53/117/20 51/79/20 54/95/20
f 53/119/21 50/68/21 52/118/21
f 50/68/21 53/119/21 55/67/21
f 56/57/22 51/120/22 49/56/22
f 51/120/22 56/57/22 54/121/22
f 56/103/23 50/123/23 55/122/23
f 50/123/23 56/103/23 49/89/23
f 53/126/24 56/125/24 55/124/24
f 56/125/24 53/126/24 54/127/24
